<svg width="846" height="249" xmlns="http://www.w3.org/2000/svg" xmlns:xlink="http://www.w3.org/1999/xlink"><defs><path d="M41.91.238C18.877.238.25 18.868.25 41.904c0 31.25 41.66 77.38 41.66 77.38s41.658-46.13 41.658-77.38C83.568 18.868 64.941.238 41.91.238z" id="a"/></defs><g fill="none" fill-rule="evenodd"><g transform="translate(1.063 1.392)" opacity=".5" stroke="#094A9F"><ellipse cx="181.728" cy="124.923" rx="31.956" ry="31.961"/><path d="M143.316 247.06c0-34.834 28.234-63.073 63.063-63.073 34.828 0 63.062 28.24 63.062 63.074H143.316zM72.617.055l72.558 72.558-72.572 72.572L.045 72.627zM135.767 155.588v57.648H78.11v-57.648z"/></g><g transform="translate(645.911 38.57)"><g transform="matrix(-1 0 0 1 199.376 0)" opacity=".5" stroke="#094A9F"><ellipse cx="39.154" cy="39.157" rx="15.154" ry="15.157"/><ellipse cx="39.597" cy="39.604" rx="39.597" ry="39.604"/></g><g transform="translate(79.87 80.471)"><mask id="b" fill="#fff"><use xlink:href="#a"/></mask><use stroke="#094A9F" opacity=".5" fill-rule="nonzero" transform="matrix(-1 0 0 1 83.819 0)" xlink:href="#a"/><path d="M42.157 27.023c-8.08 0-14.63 6.552-14.63 14.633s6.55 14.633 14.63 14.633a14.635 14.635 0 0 0 0-29.266z" stroke="#094A9F" opacity=".5" mask="url(#b)" transform="matrix(-1 0 0 1 84.315 0)"/></g><ellipse stroke="#094A9F" opacity=".5" transform="matrix(-1 0 0 1 90.08 0)" cx="45.04" cy="66.667" rx="45.04" ry="45.048"/><path stroke="#094A9F" opacity=".5" d="M44.879 135.72l26.258 26.258-26.263 26.263-26.258-26.258z"/></g></g></svg>